<?xml version="1.0" encoding="UTF-8" standalone="no"?>
<!-- Created with Inkscape (http://www.inkscape.org/) -->

<svg
   width="103.55791mm"
   height="95.355835mm"
   viewBox="0 0 103.55791 95.355832"
   version="1.1"
   id="svg1"
   xml:space="preserve"
   inkscape:version="1.4.3 (0d15f75042, 2025-12-25)"
   sodipodi:docname="logobright.svg"
   xmlns:inkscape="http://www.inkscape.org/namespaces/inkscape"
   xmlns:sodipodi="http://sodipodi.sourceforge.net/DTD/sodipodi-0.dtd"
   xmlns="http://www.w3.org/2000/svg"
   xmlns:svg="http://www.w3.org/2000/svg"><sodipodi:namedview
     id="namedview1"
     pagecolor="#ffffff"
     bordercolor="#999999"
     borderopacity="1"
     inkscape:showpageshadow="2"
     inkscape:pageopacity="0"
     inkscape:pagecheckerboard="0"
     inkscape:deskcolor="#d1d1d1"
     inkscape:document-units="mm"
     inkscape:zoom="1"
     inkscape:cx="45"
     inkscape:cy="160.5"
     inkscape:window-width="1920"
     inkscape:window-height="1016"
     inkscape:window-x="0"
     inkscape:window-y="0"
     inkscape:window-maximized="1"
     inkscape:current-layer="layer1"
     showguides="true" /><defs
     id="defs1" /><g
     inkscape:label="Layer 1"
     inkscape:groupmode="layer"
     id="layer1"
     transform="translate(-60.685998,-76.017373)"><g
       id="g51"
       style="stroke:#0d1723;stroke-opacity:1;stroke-width:0.2;stroke-dasharray:none"><path
         id="path3"
         style="fill:none;fill-opacity:1;stroke:#0d1723;stroke-width:0.2;stroke-dasharray:none;stroke-opacity:1"
         d="m 104.98067,126.51011 c -0.0117,-0.25922 -0.0311,-0.98264 -0.0264,-1.61437 -0.004,0.0934 -0.009,0.19198 -0.014,0.29403 -0.0325,0.65049 0.0403,1.32012 0.0403,1.32034 z" /><path
         id="path22"
         style="fill:#8ca1b4;fill-opacity:1;stroke:#0d1723;stroke-width:0.2;stroke-dasharray:none;stroke-opacity:1"
         d="m 104.98067,126.51011 -11.180711,-1.61903 12.192541,7.41557 c 0,0 -0.91418,-3.6335 -1.01183,-5.79654 z" /><path
         id="path23"
         style="fill:#e1ebf4;fill-opacity:1;stroke:#0d1723;stroke-width:0.2;stroke-dasharray:none;stroke-opacity:1"
         d="m 85.842822,115.19349 c 0,0 -0.248229,1.18244 1.19631,4.14031 0.966077,1.97816 3.219958,3.40393 3.219958,3.40393 l 3.540869,2.15335 11.180711,1.61903 z" /><path
         id="path21"
         style="fill:#50d0b1;fill-opacity:1;stroke:#0d1723;stroke-width:0.2;stroke-dasharray:none;stroke-opacity:1"
         d="m 100.03937,143.26257 c 0.40821,-1.88857 1.13892,-5.0187 1.65158,-7.19387 l -24.312727,21.26382 7.820711,0.27646 z" /><path
         id="path24"
         style="fill:#788998;fill-opacity:1;stroke:#0d1723;stroke-width:0.2;stroke-dasharray:none;stroke-opacity:1"
         d="m 106.67308,118.82634 c -0.5674,1.24935 -1.49587,3.49908 -1.68414,5.20898 0,0 -0.0116,0.3581 -0.0346,0.86042 -0.005,0.63173 0.0146,1.35515 0.0264,1.61437 0.0977,2.16304 1.01183,5.79654 1.01183,5.79654 l -4.30155,3.76205 c -0.51266,2.17517 -1.24337,5.3053 -1.65158,7.19387 l 9.57875,-9.25938 c -0.627,-1.29826 -0.87883,-2.74586 -0.72709,-4.17959 0.21637,-2.04352 1.23671,-3.91705 2.836,-5.20743 l -4.0783,-5.19038 z" /><path
         id="path20"
         style="fill:#6d7f8e;fill-opacity:1;stroke:#0d1723;stroke-width:0.2;stroke-dasharray:none;stroke-opacity:1"
         d="m 96.408069,112.51665 4.606951,9.12967 3.97392,2.389 c 0.18827,-1.7099 1.11674,-3.95963 1.68414,-5.20898 z" /><path
         id="path11"
         style="fill:#899fb2;fill-opacity:1;stroke:#0d1723;stroke-width:0.2;stroke-dasharray:none;stroke-opacity:1"
         d="m 79.954293,102.40409 c 0,0 -0.492097,1.85831 1.426269,5.4286 1.656134,3.08224 4.46226,4.69222 4.46226,4.69222 l 15.172198,9.12141 -4.606951,-9.12967 z" /><path
         id="path51"
         style="fill:#8ea3b8;fill-opacity:1;stroke:#0d1723;stroke-width:0.2;stroke-dasharray:none;stroke-opacity:1"
         d="m 110.51625,135.50336 -0.17622,0.14469 -9.01857,8.9116 10.12497,-0.0636 -0.12041,-8.11682 c -0.28997,-0.26875 -0.56095,-0.56125 -0.80977,-0.87591 z" /><path
         id="path18"
         style="fill:#32958d;fill-opacity:1;stroke:#0d1723;stroke-width:0.2;stroke-dasharray:none;stroke-opacity:1"
         d="m 123.8498,138.09803 -12.40337,6.39806 2.66702,5.52989 z" /><path
         id="path19"
         style="fill:#4dd4b6;fill-opacity:1;stroke:#0d1723;stroke-width:0.2;stroke-dasharray:none;stroke-opacity:1"
         d="m 116.12986,114.48604 c 0.90496,2.78571 2.29584,7.04982 2.92592,8.88472 0.32115,0.10819 0.6369,0.2378 0.94465,0.38913 3.24576,1.59604 4.95286,5.22763 4.11086,8.7452 -0.84198,3.51772 -4.0086,5.98281 -7.62538,5.93607 -1.92969,-0.0249 -3.76491,-0.76894 -5.15989,-2.06189 l 0.12041,8.11682 12.40337,-6.39806 0.0879,-0.10749 c 0,0 1.95143,-2.73248 2.73214,-4.42402 0.78071,-1.69153 0.39067,-6.57117 0.39067,-6.57117 0,0 3.38287,-7.15677 8.58759,-7.28689 5.20473,-0.13012 6.37584,2.66753 6.37584,2.66753 l 2.08204,-1.8867 c 0,0 -1.10606,-1.49626 -2.60242,-2.40709 -1.49636,-0.91082 -2.21185,-1.23621 -4.22868,-1.36633 -2.01683,-0.13012 -14.50816,1.43144 -14.50816,1.43144 l 3.64319,3.96875 -1.75649,1.2361 c 0,0 -5.73811,-6.43162 -8.52351,-8.86612 z" /><path
         id="path13"
         style="fill:#2f9a8b;fill-opacity:1;stroke:#0d1723;stroke-width:0.2;stroke-dasharray:none;stroke-opacity:1"
         d="m 99.960307,104.02104 7.654313,12.86433 1.09916,0.67645 4.9444,5.79034 0.0661,0.16226 c 1.71404,-0.68226 3.60386,-0.72561 5.33146,-0.14366 -0.63008,-1.8349 -2.02096,-6.09901 -2.92592,-8.88472 -0.044,-0.0384 -0.0872,-0.0757 -0.12971,-0.11214 -1.14683,-0.983 -8.21857,-5.473 -16.039843,-10.35286 z" /><path
         id="path12"
         style="fill:#4ad3b5;fill-opacity:1;stroke:#0d1723;stroke-width:0.2;stroke-dasharray:none;stroke-opacity:1"
         d="m 76.899699,89.7816 c -0.0034,0.0092 -0.830329,2.283247 0.845943,5.920569 1.774755,3.851021 4.749064,5.725231 4.749064,5.725231 l 25.119914,15.45797 -7.654313,-12.86433 C 89.156129,97.28009 76.921687,89.795053 76.899699,89.7816 Z" /><path
         style="fill:#95a8bc;fill-opacity:1;stroke:#0d1723;stroke-width:0.2;stroke-linecap:butt;stroke-linejoin:miter;stroke-dasharray:none;stroke-opacity:1"
         d="m 98.955404,146.81783 -10.540114,10.49503 5.432433,0.19517 8.441687,-10.6902 z"
         id="path4"
         sodipodi:nodetypes="ccccc" /><path
         style="fill:#f8b142;fill-opacity:1;stroke:#0d1723;stroke-width:0.2;stroke-linecap:butt;stroke-linejoin:miter;stroke-dasharray:none;stroke-opacity:1"
         d="m 104.35934,146.81783 -7.746605,10.42997 2.277068,0.13012 c 0,0 1.008414,-0.0651 2.244537,-0.71565 1.23612,-0.6506 2.11442,-1.95178 2.11442,-1.95178 l 3.71959,-7.89266 z"
         id="path5"
         sodipodi:nodetypes="ccccccc" /><path
         style="fill:#f5a73b;fill-opacity:1;stroke:#0d1723;stroke-width:0.2;stroke-linecap:butt;stroke-linejoin:miter;stroke-dasharray:none;stroke-opacity:1"
         d="m 124.13272,150.51418 0.35783,0.8783 c 0,0 1.49636,1.23612 2.08189,2.43972 0.58553,1.20359 1.04095,3.61077 1.04095,3.61077 l 0.87829,-0.0651 c 0,0 0.91083,-1.36625 0.78071,-2.79754 -0.13012,-1.4313 -0.78071,-2.50478 -1.78912,-3.31802 -1.00842,-0.81324 -3.35055,-0.74818 -3.35055,-0.74818 z"
         id="path6" /><path
         style="fill:#94a6ba;fill-opacity:1;stroke:#0d1723;stroke-width:0.2;stroke-linecap:butt;stroke-linejoin:miter;stroke-dasharray:none;stroke-opacity:1"
         d="m 119.38341,146.77328 1.26865,-1.659 4.87943,-1.59395 c 0,0 -2.08189,2.37466 -2.79754,3.25295 -0.71565,0.8783 -1.43129,2.27707 -1.43129,2.27707 z"
         id="path7" /><path
         id="path8"
         style="fill:#798c96;fill-opacity:1;stroke:#0d1723;stroke-width:0.2;stroke-linecap:butt;stroke-linejoin:miter;stroke-dasharray:none;stroke-opacity:1"
         d="m 131.90668,135.74727 c -0.14406,-1.66795 -0.34388,-4.14166 -0.46871,-5.70094 -0.99686,0.6493 -1.84015,1.1983 -2.37918,1.54874 -0.12451,1.2691 -0.32121,2.47293 -0.632,3.04477 -0.81323,1.49636 -5.1723,7.35149 -5.1723,7.35149 0,0 3.02529,-1.00822 5.10718,-2.92747 2.08189,-1.91924 3.44786,-3.18792 3.44786,-3.18792 z" /><path
         id="path15"
         style="fill:#899fb2;fill-opacity:1;stroke:#0d1723;stroke-width:0.2;stroke-linecap:butt;stroke-linejoin:miter;stroke-dasharray:none;stroke-opacity:1"
         d="m 140.44259,124.17795 c -1.73729,1.13254 -6.04734,3.94216 -9.00462,5.86838 0.12483,1.55928 0.32465,4.03299 0.46871,5.70094 l 8.65322,-11.45201 z" /><path
         id="path14"
         style="fill:#e3e8f3;fill-opacity:1;stroke:#0d1723;stroke-width:0.2;stroke-linecap:butt;stroke-linejoin:miter;stroke-dasharray:none;stroke-opacity:1"
         d="m 135.49767,121.74864 c -0.46507,0.008 -1.01241,0.0746 -1.57354,0.26975 -1.49636,0.52048 -4.65192,5.302 -4.65192,5.302 0,0 -0.0121,2.2229 -0.21342,4.27468 2.13811,-1.39006 9.06089,-5.90281 11.3838,-7.41712 l -0.30541,-0.30541 c 0,0 -1.46394,1.20375 -2.66753,0.19534 -1.2036,-1.00842 -0.65061,-2.17971 -0.65061,-2.17971 0,0 -0.54625,-0.15223 -1.32137,-0.13953 z" /><path
         style="fill:#fdaf3c;fill-opacity:1;stroke:#0d1723;stroke-width:0.2;stroke-linecap:butt;stroke-linejoin:miter;stroke-dasharray:none;stroke-opacity:1"
         d="m 140.88544,127.28809 4.09872,-4.94449 0.74818,-0.13012 c 0,0 1.46383,1.04095 1.9843,2.01683 0.52048,0.97589 0.52048,3.70837 0.52048,3.70837 0,0 -0.91083,-1.59395 -2.73249,-1.75659 -1.82165,-0.16265 -4.61919,1.106 -4.61919,1.106 z"
         id="path9" /><path
         id="path10"
         style="fill:#f5b03d;fill-opacity:1;stroke:#0d1723;stroke-width:0.2;stroke-linecap:butt;stroke-linejoin:miter;stroke-dasharray:none;stroke-opacity:1"
         d="m 118.0822,148.56251 -1.5937,1.72392 2.11873,2.65514 a 4.9770198,4.9770198 0 0 0 -2.99723,4.56665 4.9770198,4.9770198 0 0 0 5.1e-4,0.0651 h 1.88981 a 3.0872042,3.0872042 0 0 1 -5.2e-4,-0.0651 3.0872042,3.0872042 0 0 1 3.08715,-3.08715 3.0872042,3.0872042 0 0 1 3.08715,3.08715 3.0872042,3.0872042 0 0 1 -5.1e-4,0.0651 h 1.88981 a 4.9770198,4.9770198 0 0 0 5.1e-4,-0.0651 4.9770198,4.9770198 0 0 0 -4.62401,-4.96456 4.9770198,4.9770198 0 0 0 -5.1e-4,0 z" /><path
         id="rect40"
         style="opacity:1;fill:#f5b04c;stroke:#0d1723;stroke-width:0.2;stroke-opacity:1;stroke-dasharray:none"
         d="m 115.76362,124.39316 -0.478,1.63671 a 4.8146465,4.8146465 0 0 0 -1.0884,0.454 l -1.49884,-0.82134 -1.1549,1.15545 0.82789,1.51081 a 4.8146465,4.8146465 0 0 0 -0.43547,1.0688 l -1.66233,0.48508 v 1.63398 l 1.68249,0.49108 a 4.8146465,4.8146465 0 0 0 0.43329,1.03009 l -0.84587,1.54352 1.1549,1.15546 1.55715,-0.85351 a 4.8146465,4.8146465 0 0 0 1.00939,0.41531 l 0.4987,1.70756 h 1.63344 l 0.4987,-1.70756 a 4.8146465,4.8146465 0 0 0 1.0094,-0.41531 l 1.55713,0.85351 1.15492,-1.15546 -0.84589,-1.54352 a 4.8146465,4.8146465 0 0 0 0.43329,-1.03065 l 1.68196,-0.49052 v -1.63398 l -1.66179,-0.48508 a 4.8146465,4.8146465 0 0 0 -0.43601,-1.06825 4.8146465,4.8146465 0 0 0 0,-5.5e-4 l 0.82844,-1.51081 -1.15492,-1.15545 -1.49882,0.82134 a 4.8146465,4.8146465 0 0 0 -1.08842,-0.454 l -0.47799,-1.63671 z m 0.81645,3.08812 a 3.1859156,3.1859156 0 0 1 3.18568,3.18568 3.1859156,3.1859156 0 0 1 -3.18568,3.18623 3.1859156,3.1859156 0 0 1 -3.18622,-3.18623 3.1859156,3.1859156 0 0 1 3.18622,-3.18568 z" /></g></g></svg>
